<svg id="Layer_1" data-name="Layer 1" xmlns="http://www.w3.org/2000/svg" viewBox="0 0 1000 1000"><title>horse</title><path d="M869.35,824.77c6.18-1.91,12.32-4,18.55-5.69,3.7-1,4.38-3.24,4-6.69-.83-6.7-4.75-11.37-9.93-14.93a111.45,111.45,0,0,0-15.93-9.3,66.12,66.12,0,0,1-26.91-22.49c-8.16-11.76-16.19-23.63-23.64-35.84A42.4,42.4,0,0,1,810,714.4c-2.43-16.15-9-30.38-17.24-44.31a410.2,410.2,0,0,1-36.49-78.65c-2.62-7.77-3.91-16-5.74-24a4.27,4.27,0,0,1,.43-1.93c4.89-15.84,3.86-31.91,2-48-1.44-12.74-3.14-25.48-4-38.26-.9-13.41,3.12-26.06,8.06-38.31,7-17.37,12.39-35.1,14.82-53.75.76-5.87,2.92-11.58,4.71-17.27.73-2.33,2.44-4.57,5.21-2.49,11.71,8.78,26.09,11.56,39,17.59,11,5.13,19.89,12.42,26.46,22.79,9,14.22,24,15,34.85,2,8.47-10.11,10.19-21.71,5.71-33.77a152.31,152.31,0,0,0-11.43-23.22c-5.69-9.78-12-19.18-18.2-28.67-3.54-5.44-5.83-11.17-5.56-17.79a26.49,26.49,0,0,0-6.62-18.87c-5-5.86-10.26-11.64-15.12-17.63-3.53-4.36-9.65-9-11.36-14.33-1-3.18-.54-6.61-.19-9.93a106.94,106.94,0,0,0-1.79-33.16,3.65,3.65,0,0,0-1.19-2.37c-1.9-1.31-3.92,1.47-4.69,3.65a55.11,55.11,0,0,1-11.61,19.15c-2.68,2.87-5.8,5.53-9.58,6.58-15.07,4.18-15.66-25-21.2-33a124.08,124.08,0,0,0-12.42,31.06c-.63,2.43-1.33,5-3.06,6.81-7.07,7.43-19.28.25-28.23,3.26-3.12,1-5.94,2.84-9,4.17-15.76,6.93-34.6.35-51,5.65C679.5,255,694,266.17,707,260.94c-8.53,3.42-14.6,4.43-24,3.23-8.83-1.13-18.13-3.25-26.79,0,2.93-1.08,11.06,3.55,13.93,4.56a81.25,81.25,0,0,0,14.06,3.12c-4-.67-8.92.28-13.11-.21-7.1-.83-14.55-3.53-21.36-.07-4,2.06-7.28,5.39-10.39,8.71,5.91-.41,11.83.22,17.71.84l13,1.39c-4.06-.43-9.82.73-14.09.81-3.87.07-8.37.08-11.93,1.74-2.37,1.11-4.28,3-6.49,4.38a17.62,17.62,0,0,1-12.35,2.37c1.23,3.71,5.9,4.74,9.79,5.16,5.52.61,11.15.91,16.49,2.29,5,1.28,9.92,3.88,15.18,3.53-13.2.88-38.65-8.61-46.67,6.82,8.26.05,16.83.17,24.31,3.68-11.34-5.32-23.45,4.91-34.68,2.57a26.07,26.07,0,0,0,8.05,3.59c8.88,1.72,16.39.68,24.67,5.52-9.19-.76-17.89,4.35-27.09,4.92-4.89.3-10.27-.58-14.3,2.2,3.17-1.23,6.12,2,9.16,3.54,3.78,1.9,8.46,1.16,12.29,3-4.68.65-9.47-.53-14.16,0-4.48.46-8.6,2.54-13.21,1.47,8.18,1.9,18.06,11.63,26.88,7.84-4,2-8.42,1.34-12.71,1.26-9.29-.17-9.8,5-14.2,11.39a7.4,7.4,0,0,1-7.34,3,24.92,24.92,0,0,0,16.92,1.11c3.77-1.16,6.75-4.6,9.89.09,3,4.45-2.55,9.09-4.83,12.89-5.39,9-11.74,17.62-22.35,20.56-9.6,2.65-18.87,6.53-28.21,10a117.79,117.79,0,0,1-69.7,4.47c-15.39-3.58-30.93-6.55-46.48-9.36a94.71,94.71,0,0,0-50.69,4.36c-24.18,9-47.5,17.94-70.35,29.86a11.45,11.45,0,0,1-5.18,1.72c-2.16,0-4.09-1.21-6-2.15-12.8-6.13-28.65-.56-38.94,9.2-13.16,12.48-16,30.36-29.15,42.58a98.86,98.86,0,0,1-49.77,24.95,57.85,57.85,0,0,0,32-5.45c-12.43,17-25.91,28.65-46,36.46a40.53,40.53,0,0,0,20-.06A183.57,183.57,0,0,0,172,558.57c-4.54,2.89-18.2,11-23.77,8.06a33,33,0,0,0,22.25,2.93c-6.62,1.79-12.67,8.11-18.93,11-6.89,3.15-14.86,5.13-22.34,6.56A49.44,49.44,0,0,0,167,589.15c-7.44,2.66-14.08,11-21.61,14.53s-14.43,3.18-22.1,4.32c3.38,5.65,12.68,8.25,18.79,9.38a84.44,84.44,0,0,1-42.52,7.85,73.84,73.84,0,0,0,54.65,6.52,31.08,31.08,0,0,1-12.44,10.1c7.6-3.39,18.91-2.68,27.2-5.39,6.89-2.25,15.77-5.67,21.64-9.91a56.34,56.34,0,0,1-8.3,13.88c51.61-20.64,89.9-58.59,112.42-109.66,1.52-3.44,3.61-6.62,5.45-9.92l1.44.15c4.19,21.41,8.69,42.76,12.36,64.26,1,5.91,0,12.31-.88,18.37-1.46,10-5.68,18.88-15.2,23.34-13.86,6.49-18.52,17.89-18.79,32s.34,28-.43,41.95c-.52,9.38-2.71,18.68-4.29,28a10.3,10.3,0,0,1-1.9,4.59c-5,6.22-8.4,12.87-8,21.22.19,3.53-2.35,5.4-5.94,6.27-4.17,1-8.57,2.09-12.09,4.36-2.4,1.54-4.73,5.09-4.87,7.85a50.48,50.48,0,0,0,1.9,15.74c2.36,8.52,10.55,12.61,18.48,8.66,5.16-2.57,9.56-7,13.68-11.22,6.83-7,13-14.63,19.75-21.66,5.34-5.53,4.82-11.9,4.21-18.67-3.33-36.94,4.91-69.69,34.5-94.73q13-11,25.14-22.82c7.83-7.6,17.07-12.59,27-16.68a13.26,13.26,0,0,0,5-4.17c6-7.74,8.26-16.91,10-26.34.85-4.65,1.28-9.71,6.84-13.23,5.23,10.09,15.94,12.6,24.79,17.92,7.35,4.42,12.27,11.14,13.68,19.48,2,11.61,3.12,23.37,4.21,35.11.61,6.62.44,13.31.55,20,.18,11,4.92,19.62,12.67,27.27,15,14.85,30,29.77,44.22,45.41,6.29,6.92,10.58,15.66,15.8,23.55,1.93,2.91,3.84,5.84,5.89,8.67a21.58,21.58,0,0,0,14.42,8.95c9.22,1.62,12.35,6.59,10.47,15.6-2.16,10.36,1,16.37,11,19.77,8.23,2.81,16.64,3.61,24.87-.11,5.23-2.37,5.53-3.61,3.19-8.73-2-4.39-3.84-8.86-5.75-13.29-3.29-7.65-7.45-14.47-15.51-18.13a14.47,14.47,0,0,1-4.75-4.31c-12-14.92-23.95-29.82-35.69-44.91-6.44-8.27-12.56-16.79-18.56-25.38-6.11-8.75-8.36-18.76-8.51-29.3-.27-18.65-.58-37.3-.73-55.94,0-4.62.49-9.23.84-15.32,8.78,1.4,17,2.24,25,4.08,12.48,2.88,24.7,6.92,37.21,9.6,18.32,3.92,36.47.43,54.54-2.72,15.71-2.74,31.41-5.55,45.58-8.06,9,14.08,17.35,26.88,25.54,39.76,6.79,10.68,13.6,21.37,16.12,34.1,1.93,9.72-.54,18-8.48,24-7.42,5.62-14.91,11.31-23,15.91-10.29,5.88-19.31,12.86-26.45,22.38-3.61,4.81-4.81,4.3-7.36-.85-.92-1.86-3.48-4-5.32-4.05a18.56,18.56,0,0,0-9.39,2.44c-15.59,9.29-19.07,33-7.13,46.75,2.67,3.06,5.93,3.29,8.94,1.23a32.64,32.64,0,0,0,8-7.39c8.16-11.24,18.81-19.31,31.32-24.9,10.81-4.83,19.88-11.93,28.81-19.53,6.41-5.46,13.76-9.83,20.7-14.67.54-.38,1.16-.65,1.74-1,20.51-11.58,25.51-23.85,19-46.57a6.43,6.43,0,0,1-.11-3.84c2.45,3.32,5,6.6,7.34,10,9.84,14,19.55,28.17,29.46,42.16,6,8.41,12.48,16.43,18.22,25a107.46,107.46,0,0,1,15.21,33.48A48.26,48.26,0,0,0,815,782.12q4.93,9.25,15.6,10.09c9.14.72,11.8,3.59,12.46,12.8.11,1.5.2,3,.32,4.49.74,9.42,4.82,13.82,14.06,15.23,1,.15,1.93.43,2.89.65Z"/></svg>